<svg xmlns="http://www.w3.org/2000/svg" width="1041" height="465" viewBox="0 0 1041 465">
  <g id="Grupo_145971" data-name="Grupo 145971" transform="translate(-240 -2057)">
    <rect id="Rectángulo_42756" data-name="Rectángulo 42756" width="266" height="269" transform="translate(737 2057)" fill="#12263f"/>
    <rect id="Rectángulo_42757" data-name="Rectángulo 42757" width="260" height="177" transform="translate(464 2057)" fill="#e4c7a1"/>
    <rect id="Rectángulo_42758" data-name="Rectángulo 42758" width="268" height="204" transform="translate(1013 2122)" fill="#ffc200"/>
    <rect id="Rectángulo_42759" data-name="Rectángulo 42759" width="484" height="273" transform="translate(240 2249)" fill="#d44f4a"/>
    <rect id="Rectángulo_42760" data-name="Rectángulo 42760" width="544" height="184" transform="translate(737 2338)" fill="#afafaf"/>
    <g id="Grupo_145991" data-name="Grupo 145991" transform="translate(0 -67)">
      <g id="V7TZKe.tif" transform="translate(-784.471 -1370.268)">
        <g id="Grupo_145957" data-name="Grupo 145957" transform="translate(1575.709 3579.268)">
          <path id="Trazado_189536" data-name="Trazado 189536" d="M1683.233,3579.268v91.69c-.49-.015-.979-.044-1.469-.044q-52.365,0-104.732,0h-1.324v-91.561h1.538q52.261,0,104.521,0C1682.257,3579.348,1682.745,3579.3,1683.233,3579.268Zm-102.044,7.589v76.54h96.467v-76.54Z" transform="translate(-1557.472 -3579.268)" fill="#fff"/>
          <path id="Trazado_189537" data-name="Trazado 189537" d="M1670.632,3939.1a12.1,12.1,0,0,1-1.733-.86,3.354,3.354,0,0,1-1.535-3.516,3.594,3.594,0,0,1,2.68-2.948,6.687,6.687,0,0,1,1.807-.19q41.321-.014,82.641-.016a4.622,4.622,0,0,1,3.5,1.148,3.682,3.682,0,0,1-1.433,6.069c-.3.115-.614.208-.922.312Z" transform="translate(-1641.47 -3832.222)" fill="#fff"/>
        </g>
      </g>
      <text id="_1:1" data-name="1:1" transform="translate(837.475 2272)" fill="#fff" font-size="35" font-family="Roboto-Bold, Roboto" font-weight="700"><tspan x="0" y="0">1:1</tspan></text>
    </g>
    <text id="_3:2" data-name="3:2" transform="translate(567.021 2157.824)" fill="#12263f" font-size="35" font-family="Roboto-Bold, Roboto" font-weight="700"><tspan x="0" y="0">3:2</tspan></text>
    <g id="V7TZKe.tif-2" data-name="V7TZKe.tif" transform="translate(-1054.925 -1484.443)">
      <g id="Grupo_145957-2" data-name="Grupo 145957" transform="translate(1575.709 3579.268)">
        <path id="Trazado_189536-2" data-name="Trazado 189536" d="M1703.277,3579.268v91.69c-.581-.015-1.162-.044-1.742-.044q-62.127,0-124.254,0h-1.571v-91.561h1.825q62,0,124.005,0C1702.118,3579.348,1702.7,3579.3,1703.277,3579.268Zm-121.066,7.589v76.54h114.449v-76.54Z" transform="translate(-1567.493 -3579.268)" fill="#12263f"/>
        <path id="Trazado_189537-2" data-name="Trazado 189537" d="M1670.632,3939.1a12.1,12.1,0,0,1-1.733-.86,3.354,3.354,0,0,1-1.535-3.516,3.594,3.594,0,0,1,2.68-2.948,6.687,6.687,0,0,1,1.807-.19q41.321-.014,82.641-.016a4.622,4.622,0,0,1,3.5,1.148,3.682,3.682,0,0,1-1.433,6.069c-.3.115-.614.208-.922.312Z" transform="translate(-1641.47 -3832.222)" fill="#12263f"/>
      </g>
    </g>
    <text id="_4:3_" data-name="4:3 " transform="translate(1125.203 2235.621)" fill="#12263f" font-size="35" font-family="Roboto-Bold, Roboto" font-weight="700"><tspan x="0" y="0">4:3 </tspan></text>
    <g id="V7TZKe.tif-3" data-name="V7TZKe.tif" transform="translate(-496.742 -1396.646)">
      <g id="Grupo_145957-3" data-name="Grupo 145957" transform="translate(1575.709 3579.268)">
        <path id="Trazado_189536-3" data-name="Trazado 189536" d="M1733.641,3579.268v111.815c-.719-.019-1.438-.054-2.157-.054q-76.915,0-153.831,0h-1.945V3579.37h2.259q76.761,0,153.522,0C1732.207,3579.365,1732.924,3579.3,1733.641,3579.268Zm-149.883,9.254v93.34h141.691v-93.34Z" transform="translate(-1582.676 -3599.394)" fill="#12263f"/>
        <path id="Trazado_189537-3" data-name="Trazado 189537" d="M1670.632,3939.1a12.1,12.1,0,0,1-1.733-.86,3.354,3.354,0,0,1-1.535-3.516,3.594,3.594,0,0,1,2.68-2.948,6.687,6.687,0,0,1,1.807-.19q41.321-.014,82.641-.016a4.622,4.622,0,0,1,3.5,1.148,3.682,3.682,0,0,1-1.433,6.069c-.3.115-.614.208-.922.312Z" transform="translate(-1641.47 -3832.222)" fill="#12263f"/>
      </g>
    </g>
    <text id="_16:9" data-name="16:9" transform="translate(441.545 2405.454)" fill="#12263f" font-size="35" font-family="Roboto-Bold, Roboto" font-weight="700"><tspan x="0" y="0">16:9</tspan></text>
    <g id="V7TZKe.tif-4" data-name="V7TZKe.tif" transform="translate(-1167.4 -1236.813)">
      <g id="Grupo_145957-4" data-name="Grupo 145957" transform="translate(1575.709 3579.268)">
        <path id="Trazado_189536-4" data-name="Trazado 189536" d="M1719.708,3579.268v91.69c-.656-.015-1.311-.044-1.967-.044q-70.129,0-140.259,0h-1.773v-91.561h2.06q69.989,0,139.978,0C1718.4,3579.348,1719.054,3579.3,1719.708,3579.268Zm-136.66,7.589v76.54h129.19v-76.54Z" transform="translate(-1575.709 -3579.268)" fill="#12263f"/>
        <path id="Trazado_189537-4" data-name="Trazado 189537" d="M1670.632,3939.1a12.1,12.1,0,0,1-1.733-.86,3.354,3.354,0,0,1-1.535-3.516,3.594,3.594,0,0,1,2.68-2.948,6.687,6.687,0,0,1,1.807-.19q41.321-.014,82.641-.016a4.622,4.622,0,0,1,3.5,1.148,3.682,3.682,0,0,1-1.433,6.069c-.3.115-.614.208-.922.312Z" transform="translate(-1641.47 -3832.222)" fill="#12263f"/>
      </g>
    </g>
    <text id="_21:9" data-name="21:9" transform="translate(965.76 2444)" fill="#12263f" font-size="35" font-family="Roboto-Bold, Roboto" font-weight="700"><tspan x="0" y="0">21:9</tspan></text>
    <g id="V7TZKe.tif-5" data-name="V7TZKe.tif" transform="translate(-643.186 -1198.268)">
      <g id="Grupo_145957-5" data-name="Grupo 145957" transform="translate(1575.709 3579.268)">
        <path id="Trazado_189536-5" data-name="Trazado 189536" d="M1754.755,3579.268v91.69c-.815-.015-1.63-.044-2.446-.044q-87.2,0-174.4,0h-2.2v-91.561h2.561q87.023,0,174.046,0C1753.129,3579.348,1753.942,3579.3,1754.755,3579.268Zm-169.921,7.589v76.54h160.633v-76.54Z" transform="translate(-1593.233 -3579.268)" fill="#12263f"/>
        <path id="Trazado_189537-5" data-name="Trazado 189537" d="M1670.632,3939.1a12.1,12.1,0,0,1-1.733-.86,3.354,3.354,0,0,1-1.535-3.516,3.594,3.594,0,0,1,2.68-2.948,6.687,6.687,0,0,1,1.807-.19q41.321-.014,82.641-.016a4.622,4.622,0,0,1,3.5,1.148,3.682,3.682,0,0,1-1.433,6.069c-.3.115-.614.208-.922.312Z" transform="translate(-1641.47 -3832.222)" fill="#12263f"/>
      </g>
    </g>
  </g>
</svg>
